<mxfile host="app.diagrams.net" modified="2024-05-15T13:14:21.589Z" agent="Mozilla/5.0 (Windows NT 10.0; Win64; x64) AppleWebKit/537.36 (KHTML, like Gecko) Chrome/124.0.0.0 Safari/537.36 Edg/124.0.0.0" version="24.4.0" etag="sl5KPT2ZbzFigy6Qyy4l" type="github">
  <diagram name="第 1 页" id="fTF5Qn7pRRp8l7CTALlB">
    <mxGraphModel>
      <root>
        <mxCell id="0" />
        <mxCell id="1" parent="0" />
      </root>
    </mxGraphModel>
  </diagram>
</mxfile>
